<?xml version="1.0" encoding="utf-8"?>
<!-- Generator: Adobe Illustrator 24.0.0, SVG Export Plug-In . SVG Version: 6.00 Build 0)  -->
<svg version="1.1" id="レイヤー_1" xmlns="http://www.w3.org/2000/svg" xmlns:xlink="http://www.w3.org/1999/xlink" x="0px"
	 y="0px" viewBox="0 0 32 32" style="enable-background:new 0 0 32 32;" xml:space="preserve">
<style type="text/css">
	.st0{fill:#0057B8;}
</style>
<title>icon_mail</title>
<g id="オブジェクト">
	<path class="st0" d="M32,8c0-1.7-1.5-3.1-3.2-3.1H3.2C1.5,4.9,0,6.3,0,8v16c0,1.7,1.5,3.1,3.2,3.1h25.6c1.7,0,3.2-1.4,3.2-3.1V8z
		 M28.2,11.3L16,19L3.8,11.3c-0.2-0.1-0.3-0.4-0.3-0.6V9.3c0-0.4,0.3-0.7,0.7-0.7c0.1,0,0.3,0,0.4,0.1L16,15.8l11.5-7.2
		c0.3-0.2,0.8-0.1,1,0.2c0.1,0.1,0.1,0.2,0.1,0.4v1.5C28.5,11,28.4,11.2,28.2,11.3z"/>
</g>
</svg>
